<?xml version="1.0" standalone="no"?>
<!DOCTYPE svg PUBLIC "-//W3C//DTD SVG 20010904//EN"
 "http://www.w3.org/TR/2001/REC-SVG-20010904/DTD/svg10.dtd">
<svg version="1.0" xmlns="http://www.w3.org/2000/svg"
 width="447.000000pt" height="323.000000pt" viewBox="0 0 447.000000 323.000000"
 preserveAspectRatio="xMidYMid meet">

<g transform="translate(0.000000,323.000000) scale(0.100000,-0.100000)"
fill="#8779f4" stroke="none">
<path d="M1433 3206 c-231 -56 -388 -298 -370 -570 8 -116 28 -190 79 -295
109 -221 348 -356 546 -307 405 100 505 695 173 1026 -82 82 -164 129 -259
149 -65 14 -102 13 -169 -3z"/>
<path d="M2881 3164 c-148 -40 -273 -148 -346 -297 -69 -145 -89 -283 -60
-422 34 -160 135 -303 258 -363 83 -41 206 -59 279 -42 254 61 430 287 446
572 8 159 -42 312 -139 422 -105 119 -282 172 -438 130z m181 -206 c139 -41
218 -234 173 -421 -21 -89 -41 -129 -94 -189 -110 -125 -280 -136 -381 -26
-160 176 -86 522 133 624 57 26 109 30 169 12z"/>
<path d="M430 2268 c-138 -15 -295 -129 -359 -259 -51 -105 -64 -177 -58 -309
6 -130 21 -184 89 -313 29 -54 66 -104 113 -151 192 -193 427 -242 641 -133
105 53 179 140 231 272 25 65 27 81 27 210 0 134 -2 144 -33 227 -83 220 -219
359 -425 435 -57 21 -149 29 -226 21z m166 -225 c227 -76 366 -352 294 -585
-25 -80 -73 -138 -145 -173 -151 -74 -362 21 -460 206 -48 91 -65 155 -65 245
0 231 175 375 376 307z"/>
<path d="M3965 2188 c-115 -15 -272 -114 -343 -218 -90 -129 -126 -250 -119
-390 10 -203 109 -355 274 -422 46 -18 78 -23 148 -23 106 0 149 12 233 62
181 111 294 309 293 518 0 157 -47 272 -151 369 -91 84 -208 120 -335 104z
m128 -219 c51 -14 108 -74 131 -138 13 -38 17 -71 14 -134 -6 -142 -83 -268
-200 -326 -178 -90 -342 40 -325 258 17 226 200 390 380 340z"/>
<path d="M2153 1839 c-159 -20 -324 -90 -449 -190 -66 -52 -165 -167 -199
-232 -13 -25 -32 -42 -60 -53 -120 -48 -274 -190 -338 -311 -63 -122 -82 -201
-81 -343 0 -107 4 -136 27 -205 68 -206 216 -363 419 -444 124 -50 163 -52
824 -48 679 4 647 0 799 76 136 68 239 170 312 312 180 349 28 791 -330 954
-49 23 -62 36 -111 109 -136 204 -365 344 -616 375 -93 12 -107 12 -197 0z"/>
</g>
</svg>
